<svg width="800" height="800" viewBox="0 0 800 800" fill="none" xmlns="http://www.w3.org/2000/svg">
<circle cx="400" cy="400" r="400" fill="#1E1E1E"/>
<path d="M659 381.677C659 523.435 542.019 632.925 398.702 684.881C255.384 632.925 140 523.435 140 381.677C140 239.918 256.182 125 399.5 125C542.818 125 659 239.918 659 381.677Z" fill="white"/>
<path d="M400.154 181.154C425.441 181.154 450.5 185.949 474 195.286L400.154 381.154L400.154 181.154Z" fill="#FF4545"/>
<path d="M468.558 193.215C492.32 201.864 514.227 214.941 533.117 231.752L400.154 381.153L468.558 193.215Z" fill="#FF794C"/>
<path d="M531.667 230.513C550.752 247.103 566.517 267.162 578.128 289.627L400.455 381.455L531.667 230.513Z" fill="#FFF350"/>
<path d="M576.743 287.26C588.615 309.587 596.145 333.964 598.934 359.097L400.154 381.154L576.743 287.26Z" fill="#54FF51"/>
<path d="M598.207 353.318C601.727 378.36 600.465 403.842 594.49 428.413L400.154 381.153L598.207 353.318Z" fill="#3F92FF"/>
<path d="M595.027 426.143C589.339 450.782 579.029 474.119 564.645 494.917L400.153 381.152L595.027 426.143Z" fill="#C94CFF"/>
<circle cx="400" cy="381" r="121" fill="#1E1E1E"/>
</svg>
